<!DOCTYPE svg PUBLIC "-//W3C//DTD SVG 1.1//EN" "http://www.w3.org/Graphics/SVG/1.1/DTD/svg11.dtd">
<!-- Uploaded to: SVG Repo, www.svgrepo.com, Transformed by: SVG Repo Mixer Tools -->
<svg fill="#D87D4A" height="64px" width="64px" version="1.1" id="Layer_1" xmlns="http://www.w3.org/2000/svg" xmlns:xlink="http://www.w3.org/1999/xlink" viewBox="0 0 512 512" xml:space="preserve" stroke="#D87D4A" stroke-width="10.24">
<g id="SVGRepo_bgCarrier" stroke-width="0"/>
<g id="SVGRepo_tracerCarrier" stroke-linecap="round" stroke-linejoin="round" stroke="#CCCCCC" stroke-width="1.024"/>
<g id="SVGRepo_iconCarrier"> <g> <g> <path d="M418.472,302.679H401.37c-4.427,0-8.017,3.589-8.017,8.017s3.589,8.017,8.017,8.017h17.102 c4.427,0,8.017-3.589,8.017-8.017S422.899,302.679,418.472,302.679z"/> </g> </g> <g> <g> <path d="M469.779,302.679h-17.102c-4.427,0-8.017,3.589-8.017,8.017s3.589,8.017,8.017,8.017h17.102 c4.427,0,8.017-3.589,8.017-8.017S474.206,302.679,469.779,302.679z"/> </g> </g> <g> <g> <path d="M367.165,302.679h-17.102c-4.427,0-8.017,3.589-8.017,8.017s3.589,8.017,8.017,8.017h17.102 c4.427,0,8.017-3.589,8.017-8.017S371.592,302.679,367.165,302.679z"/> </g> </g> <g> <g> <path d="M332.96,234.27h-25.653c-9.136,0-16.568,7.432-16.568,16.568v17.102c0,9.136,7.432,16.568,16.568,16.568h25.653 c9.136,0,16.568-7.432,16.568-16.568v-17.102C349.528,241.702,342.096,234.27,332.96,234.27z M333.495,267.94 c0,0.295-0.239,0.534-0.534,0.534h-25.653c-0.295,0-0.534-0.239-0.534-0.534v-17.102c0-0.295,0.239-0.534,0.534-0.534h25.653 c0.295,0,0.534,0.239,0.534,0.534V267.94z"/> </g> </g> <g> <g> <path d="M452.676,234.27c-6.603,0-12.614,2.564-17.102,6.745c-4.488-4.18-10.5-6.745-17.102-6.745 c-13.851,0-25.119,11.268-25.119,25.119s11.268,25.119,25.119,25.119c6.603,0,12.614-2.564,17.102-6.745 c4.488,4.18,10.5,6.745,17.102,6.745c13.851,0,25.119-11.268,25.119-25.119C477.795,245.538,466.527,234.27,452.676,234.27z M418.472,268.474c-5.01,0-9.086-4.076-9.086-9.086s4.076-9.086,9.086-9.086c5.01,0,9.086,4.076,9.086,9.086 S423.482,268.474,418.472,268.474z M452.676,268.474c-5.01,0-9.086-4.076-9.086-9.086s4.076-9.086,9.086-9.086 c5.01,0,9.086,4.076,9.086,9.086S457.686,268.474,452.676,268.474z"/> </g> </g> <g> <g> <path d="M486.881,191.514h-132.81l-14.747-19.663c-6.767-9.023-16.642-14.869-27.806-16.464l-89.074-12.725 c-12.328-1.758-24.891-0.098-36.336,4.807l-89.769,38.473c-4.723,2.024-9.64,3.498-14.674,4.425 c-2.973-4.457-8.042-7.402-13.79-7.402H16.568C7.432,182.964,0,190.396,0,199.532v128.267c0,9.136,7.432,16.568,16.568,16.568 h51.307c6.228,0,11.66-3.458,14.489-8.551h174.171v9.086c0,13.851,11.268,25.119,25.119,25.119h205.228 c13.851,0,25.119-11.268,25.119-25.119V216.634C512,202.782,500.732,191.514,486.881,191.514z M68.409,327.798 c0,0.295-0.239,0.534-0.534,0.534H16.568c-0.295,0-0.534-0.239-0.534-0.534V199.531c0-0.295,0.239-0.534,0.534-0.534h51.307 c0.295,0,0.534,0.239,0.534,0.534V327.798z M84.443,319.78V206.154c6.248-1.139,12.35-2.966,18.212-5.478l89.769-38.473 c8.74-3.745,18.338-5.015,27.753-3.671l89.074,12.725c6.925,0.989,13.049,4.615,17.247,10.212l7.532,10.043h-78.46 c-13.293,0-25.369,7.849-30.768,19.996l-18.463,41.54c-3.18,7.154-2.875,15.211,0.835,22.106 c3.71,6.894,10.267,11.587,17.991,12.874l65.353,10.892c5.085,0.847,8.775,5.203,8.775,10.358c0,5.79-4.711,10.501-10.501,10.501 H84.443z M258.241,207.548c-1.098,2.82-1.707,5.882-1.707,9.086v60.37l-28.736-4.789c-2.793-0.466-5.165-2.162-6.507-4.656 c-1.341-2.494-1.452-5.409-0.301-7.995l18.463-41.541c2.828-6.363,9.154-10.474,16.117-10.474H258.241z M495.967,344.9 c0,5.01-4.076,9.086-9.086,9.086H281.653c-5.01,0-9.086-4.076-9.086-9.086v-9.086h16.221c11.31,0,20.984-7.116,24.796-17.102 h2.272c4.427,0,8.017-3.589,8.017-8.017s-3.589-8.017-8.017-8.017h-1.374c-2.544-9.994-10.731-17.806-21.333-19.573l-20.584-3.43 v-63.043c0-5.01,4.076-9.086,9.086-9.086h205.228c5.01,0,9.086,4.076,9.086,9.086V344.9z"/> </g> </g> <g> <g> <circle cx="42.221" cy="301.962" r="8.017"/> </g> </g> </g>
</svg>